<svg width="64" height="64" viewBox="0 0 64 64" fill="none" xmlns="http://www.w3.org/2000/svg">
<rect x="0.5" y="0.5" width="63" height="63" rx="31.5" fill="url(#paint0_linear_603_235)" fill-opacity="0.15"/>
<rect x="0.5" y="0.5" width="63" height="63" rx="31.5" stroke="black"/>
<g clip-path="url(#clip0_603_235)">
<path d="M31 24.5C31 25.163 30.7366 25.7989 30.2678 26.2678C29.7989 26.7366 29.1631 27 28.5 27C27.837 27 27.2011 26.7366 26.7322 26.2678C26.2634 25.7989 26 25.163 26 24.5C26 23.837 26.2634 23.2011 26.7322 22.7322C27.2011 22.2634 27.837 22 28.5 22C29.1631 22 29.7989 22.2634 30.2678 22.7322C30.7366 23.2011 31 23.837 31 24.5V24.5ZM35.225 28.553C35.1312 28.506 35.0251 28.4897 34.9215 28.5064C34.818 28.5231 34.7223 28.5719 34.648 28.646L30.938 33.356L28.278 30.584C28.182 30.5201 28.0668 30.4913 27.952 30.5026C27.8371 30.5139 27.7297 30.5646 27.648 30.646L24.002 35V37C24.002 37.2652 24.1074 37.5196 24.2949 37.7071C24.4824 37.8946 24.7368 38 25.002 38H39.002C39.1333 38 39.2634 37.9741 39.3847 37.9239C39.506 37.8736 39.6163 37.8 39.7091 37.7071C39.802 37.6142 39.8756 37.504 39.9259 37.3827C39.9761 37.2614 40.002 37.1313 40.002 37V32.5L35.225 28.553V28.553Z" fill="black"/>
</g>
<defs>
<linearGradient id="paint0_linear_603_235" x1="-94.9557" y1="92.1558" x2="91.9734" y2="80.5466" gradientUnits="userSpaceOnUse">
<stop offset="0.03125" stop-color="#800080" stop-opacity="0.634435"/>
<stop offset="0.286358" stop-color="#800080" stop-opacity="0.504186"/>
<stop offset="0.286358" stop-color="#800080" stop-opacity="0.504186"/>
<stop offset="0.286458" stop-color="#800080" stop-opacity="0.504186"/>
<stop offset="0.34375" stop-color="#800080" stop-opacity="0.474946"/>
<stop offset="0.5" stop-color="#800080" stop-opacity="0.395202"/>
<stop offset="0.640625" stop-color="#800080" stop-opacity="0.323431"/>
<stop offset="0.666667" stop-color="#800080" stop-opacity="0.14007"/>
<stop offset="0.802083" stop-color="#800080" stop-opacity="0.0831666"/>
<stop offset="0.838542" stop-color="#800080" stop-opacity="0"/>
<stop offset="0.895833" stop-color="#800080" stop-opacity="0"/>
<stop offset="0.958333" stop-color="#800080" stop-opacity="0"/>
<stop offset="0.989583" stop-color="#800080" stop-opacity="0"/>
<stop offset="0.989583" stop-color="#800080" stop-opacity="0"/>
<stop offset="0.989683" stop-color="#800080" stop-opacity="0"/>
</linearGradient>
<clipPath id="clip0_603_235">
<rect width="16" height="16" fill="white" transform="translate(24 22)"/>
</clipPath>
</defs>
</svg>
