<svg width="88" height="93" viewBox="0 0 88 93" fill="none" xmlns="http://www.w3.org/2000/svg">
<path d="M42.9458 0.245908L19.8426 12.215C19.1745 12.5611 19.5642 12.916 19.8426 13.0501L28.7498 17.7821C29.8632 14.6274 34.4282 8.31813 43.7808 8.31813C53.1334 8.31813 57.6984 14.6274 58.8118 17.7821L61.0386 16.6687C60.9458 20.8439 60.8159 29.4728 61.0386 30.5863C61.2613 31.6997 62.6159 32.5347 63.2654 32.8131V31.143C63.9149 31.2357 65.0469 31.2543 64.3788 30.5863C63.7108 29.9182 63.7294 28.4522 63.8221 27.8027V14.1635C64.5644 13.6996 66.3273 12.6604 67.4407 12.215C68.7768 12.215 67.9974 11.6583 67.4407 11.38C60.7603 7.94699 47.0097 0.913974 45.4509 0.245908C44.1148 -0.199455 43.2241 0.06034 42.9458 0.245908Z" fill="url(#paint0_linear_603_280)"/>
<path d="M69.0924 88.2051H19.0081V91.5453C19.0081 92.436 19.5677 92.6587 19.8475 92.6587H67.4136C68.9805 92.6587 69.1857 91.9164 69.0924 91.5453V88.2051Z" fill="url(#paint1_linear_603_280)"/>
<path d="M58.2552 42.8337H30.1417C25.9106 42.8337 23.7397 44.6894 23.1831 45.6173C17.616 53.3183 5.47986 70.2235 1.4716 76.2359C-2.53666 82.2483 2.58501 86.5349 5.64687 87.9267H19.0076V57.0297C18.785 56.3616 19.8427 55.8235 20.3994 55.6379H67.4408C68.7769 55.6379 69.1109 56.5658 69.1109 57.0297V87.9267H82.4718C90.043 86.1452 88.2244 79.205 86.3687 75.9576C80.3378 67.3287 67.7748 49.4028 65.7707 46.7307C63.7666 44.0585 59.9253 43.0193 58.2552 42.8337Z" fill="url(#paint2_linear_603_280)"/>
<circle cx="44.0592" cy="25.2976" r="13.9176" fill="url(#paint3_linear_603_280)"/>
<circle cx="44.06" cy="72.6173" r="5.56703" fill="url(#paint4_linear_603_280)"/>
<defs>
<linearGradient id="paint0_linear_603_280" x1="13.7689" y1="12.8946" x2="102.147" y2="13.4344" gradientUnits="userSpaceOnUse">
<stop stop-color="#3F37C9" stop-opacity="0.74"/>
<stop offset="1" stop-color="#B14240" stop-opacity="0.53"/>
</linearGradient>
<linearGradient id="paint1_linear_603_280" x1="13.1394" y1="89.9552" x2="103.864" y2="94.1551" gradientUnits="userSpaceOnUse">
<stop stop-color="#3F37C9" stop-opacity="0.74"/>
<stop offset="1" stop-color="#B14240" stop-opacity="0.53"/>
</linearGradient>
<linearGradient id="paint2_linear_603_280" x1="-10.3075" y1="60.554" x2="149.371" y2="61.8362" gradientUnits="userSpaceOnUse">
<stop stop-color="#3F37C9" stop-opacity="0.74"/>
<stop offset="1" stop-color="#B14240" stop-opacity="0.53"/>
</linearGradient>
<linearGradient id="paint3_linear_603_280" x1="26.8813" y1="22.3184" x2="77.3912" y2="22.5263" gradientUnits="userSpaceOnUse">
<stop stop-color="#3F37C9" stop-opacity="0.74"/>
<stop offset="1" stop-color="#B14240" stop-opacity="0.53"/>
</linearGradient>
<linearGradient id="paint4_linear_603_280" x1="37.1888" y1="71.4257" x2="57.3928" y2="71.5088" gradientUnits="userSpaceOnUse">
<stop stop-color="#3F37C9" stop-opacity="0.74"/>
<stop offset="1" stop-color="#B14240" stop-opacity="0.53"/>
</linearGradient>
</defs>
</svg>
