<svg width="82" height="109" viewBox="0 0 82 109" fill="none" xmlns="http://www.w3.org/2000/svg">
<path d="M81.9241 104.56C81.5499 103.437 75.0194 76.9399 73.5395 75.4605C72.0597 73.9811 68.6075 74.9673 68.1143 74.9673C67.6211 74.9673 67.1278 75.4605 68.1143 76.4469C69.1007 77.4333 75.5124 101.6 77.9784 105.546C80.4445 109.492 82.4171 106.039 81.9241 104.56Z" fill="url(#paint0_linear_603_46)"/>
<path d="M57.7559 81.8724H48.385C47.3986 81.8724 46.9054 82.6616 46.9054 84.2398C46.9054 85.5024 47.8918 85.8181 48.385 85.8181H57.7559C58.7423 85.8181 58.7423 85.029 58.7423 83.4507C58.7423 82.1881 58.0847 81.8724 57.7559 81.8724Z" fill="url(#paint1_linear_603_46)"/>
<path d="M49.8656 79.8996C47.4982 78.3213 47.8928 74.9675 48.386 73.4879C49.3728 72.0083 50.8516 72.0083 53.8109 73.4879C56.7701 74.9675 62.1954 73.192 65.1547 74.9675C68.1139 76.7431 73.5392 105.546 73.5392 107.026C73.5392 108.506 70.5799 108.506 70.0867 107.026C69.5935 105.546 61.7022 85.3249 61.7022 83.8453C61.7022 82.3656 60.2226 79.8996 58.743 79.8996C57.2633 79.8996 50.8516 80.3928 49.8656 79.8996Z" fill="url(#paint2_linear_603_46)"/>
<path d="M36.0554 100.614C35.5626 99.628 37.6995 95.5179 38.0283 93.2163C38.1789 92.2299 40.9872 98.6416 43.4532 104.067C43.9465 107.519 39.5081 108.506 39.5079 107.519C39.5076 106.533 36.5483 101.601 36.0554 100.614Z" fill="url(#paint3_linear_603_46)"/>
<path d="M15.3401 82.3656H3.50315C-2.02078 82.7602 0.0502407 86.3113 2.51673 86.3113C4.98322 86.3113 24.7111 86.114 22.7382 85.3248L15.3401 82.3656Z" fill="url(#paint4_linear_603_46)"/>
<ellipse cx="46.9051" cy="10.3574" rx="14.7962" ry="10.3574" fill="url(#paint5_linear_603_46)"/>
<path d="M42.8132 24.2493C45.1064 22.243 45.4489 21.5587 45.4489 20.5321L42.369 20.1899C44.0953 21.7277 38.3823 28.1257 42.8132 24.2493Z" fill="url(#paint6_linear_603_46)"/>
<path d="M24.7107 45.3751C29.8401 45.7697 30.1362 51.7868 28.6564 52.28C27.1766 52.7732 27.177 51.2936 23.7245 48.8275C20.568 47.6438 20.7653 49.3207 21.2585 50.3071C23.5601 52.1156 29.2484 55.6338 33.5887 55.2392C39.014 54.746 41.48 54.2528 43.946 52.7732C46.4121 51.2936 49.3713 52.7732 47.8917 54.746C46.4121 56.7188 33.5887 60.1713 29.1498 58.6917L29.1491 58.6914C24.7109 57.2121 24.7105 57.2119 20.7653 54.2528C17.2142 53.0691 17.6416 55.4036 18.2992 56.7188C19.9433 57.8697 24.7107 59.1849 24.7107 61.6509C24.7107 64.117 22.7386 70.5287 23.2313 71.0219C23.724 71.5151 10.9011 71.0219 9.91452 71.0219C8.92791 71.0219 11.3943 59.1849 12.3806 57.2121C13.3668 55.2393 19.5814 44.9805 24.7107 45.3751Z" fill="url(#paint7_linear_603_46)"/>
<path d="M22.7395 73.488C22.2463 72.9947 10.4093 72.9947 10.4093 73.488C9.42187 79.8996 19.2871 81.3793 19.7803 81.8725C20.2735 82.3657 30.1376 85.3249 31.124 86.3114C32.1105 87.2978 32.1094 87.791 31.124 89.2706C28.1638 92.2298 26.6852 105.546 26.6852 106.533C27.1774 107.519 30.1366 108.012 31.124 107.026C29.6454 106.04 34.5765 94.6959 37.0425 89.2706C39.5086 83.8453 36.0561 83.8453 35.5629 82.8589C35.0697 81.8725 23.7259 76.9404 23.2327 75.954C22.8382 75.1649 23.2328 73.9812 22.7395 73.488Z" fill="url(#paint8_linear_603_46)"/>
<circle cx="30.1371" cy="35.5109" r="7.89132" fill="url(#paint9_linear_603_46)"/>
<circle cx="60.7157" cy="34.5245" r="7.89132" fill="url(#paint10_linear_603_46)"/>
<path d="M51.3454 43.8956C48.1889 44.2901 45.4269 49.8141 46.4133 49.8141C47.3998 49.8141 48.3862 50.3072 48.8794 50.8004C49.3726 51.2936 49.9858 55.2393 47.893 56.2257C45.8001 57.2121 45.9201 57.7053 45.9201 58.6917C45.9201 59.6781 46.9066 63.6238 49.3726 67.0762C51.8386 70.5287 56.2775 69.0491 54.3047 67.5694C52.7264 66.3857 51.0166 61.8154 50.359 59.6781C50.359 59.6781 49.3726 51.2936 50.359 49.8141C51.1481 48.6304 52.3318 49.3209 52.825 49.8141V57.7053C52.825 60.6645 56.7707 67.0762 60.7164 67.0762C64.662 67.0762 65.6481 65.5985 67.6213 61.651C68.6074 59.1849 68.1145 52.28 68.1145 50.8004C68.1145 49.3208 69.5941 49.3208 70.5805 50.3072C71.5669 51.2936 71.0734 55.2393 71.0734 57.7053C71.0734 62.1442 69.5938 68.0627 64.662 69.0491C63.1324 69.355 59.2367 69.5423 56.7707 69.5423C54.7979 70.3314 55.9487 71.5151 56.7707 72.0083C61.7025 71.5151 65.1549 72.5015 68.1145 71.0219C72.5257 68.8165 73.5395 64.117 74.5262 60.6645C75.3506 57.78 75.5126 53.2664 75.5126 49.8141C75.5126 46.3617 72.5534 43.8956 71.0737 43.4023C69.89 43.0077 67.6213 43.2379 66.6349 43.4023C65.8128 43.7311 64.0702 44.4874 63.6756 44.8819C63.1824 45.3752 59.73 45.8684 57.7571 44.8819L55.7843 43.8956C55.6199 43.7312 54.502 43.501 51.3454 43.8956Z" fill="url(#paint11_linear_603_46)"/>
<defs>
<linearGradient id="paint0_linear_603_46" x1="65.8516" y1="87.5065" x2="92.0828" y2="87.5541" gradientUnits="userSpaceOnUse">
<stop stop-color="#3F37C9" stop-opacity="0.74"/>
<stop offset="1" stop-color="#B14240" stop-opacity="0.53"/>
</linearGradient>
<linearGradient id="paint1_linear_603_46" x1="45.5189" y1="83.423" x2="66.9955" y2="83.6881" gradientUnits="userSpaceOnUse">
<stop stop-color="#3F37C9" stop-opacity="0.74"/>
<stop offset="1" stop-color="#B14240" stop-opacity="0.53"/>
</linearGradient>
<linearGradient id="paint2_linear_603_46" x1="45.0218" y1="86.4299" x2="91.3444" y2="86.5659" gradientUnits="userSpaceOnUse">
<stop stop-color="#3F37C9" stop-opacity="0.74"/>
<stop offset="1" stop-color="#B14240" stop-opacity="0.53"/>
</linearGradient>
<linearGradient id="paint3_linear_603_46" x1="35.1024" y1="98.9179" x2="48.7294" y2="98.9464" gradientUnits="userSpaceOnUse">
<stop stop-color="#3F37C9" stop-opacity="0.74"/>
<stop offset="1" stop-color="#B14240" stop-opacity="0.53"/>
</linearGradient>
<linearGradient id="paint4_linear_603_46" x1="-2.67955" y1="83.9161" x2="38.8098" y2="84.906" gradientUnits="userSpaceOnUse">
<stop stop-color="#3F37C9" stop-opacity="0.74"/>
<stop offset="1" stop-color="#B14240" stop-opacity="0.53"/>
</linearGradient>
<linearGradient id="paint5_linear_603_46" x1="28.6427" y1="8.14028" x2="82.3405" y2="8.45593" gradientUnits="userSpaceOnUse">
<stop stop-color="#3F37C9" stop-opacity="0.74"/>
<stop offset="1" stop-color="#B14240" stop-opacity="0.53"/>
</linearGradient>
<linearGradient id="paint6_linear_603_46" x1="39.9476" y1="22.6358" x2="49.2066" y2="20.9314" gradientUnits="userSpaceOnUse">
<stop stop-color="#3F37C9" stop-opacity="0.74"/>
<stop offset="1" stop-color="#B14240" stop-opacity="0.53"/>
</linearGradient>
<linearGradient id="paint7_linear_603_46" x1="5.1644" y1="55.5329" x2="75.2113" y2="55.9629" gradientUnits="userSpaceOnUse">
<stop stop-color="#3F37C9" stop-opacity="0.74"/>
<stop offset="1" stop-color="#B14240" stop-opacity="0.53"/>
</linearGradient>
<linearGradient id="paint8_linear_603_46" x1="7.10923" y1="86.6542" x2="57.16" y2="86.8191" gradientUnits="userSpaceOnUse">
<stop stop-color="#3F37C9" stop-opacity="0.74"/>
<stop offset="1" stop-color="#B14240" stop-opacity="0.53"/>
</linearGradient>
<linearGradient id="paint9_linear_603_46" x1="20.3972" y1="33.8217" x2="49.0365" y2="33.9396" gradientUnits="userSpaceOnUse">
<stop stop-color="#3F37C9" stop-opacity="0.74"/>
<stop offset="1" stop-color="#B14240" stop-opacity="0.53"/>
</linearGradient>
<linearGradient id="paint10_linear_603_46" x1="50.9758" y1="32.8353" x2="79.6151" y2="32.9531" gradientUnits="userSpaceOnUse">
<stop stop-color="#3F37C9" stop-opacity="0.74"/>
<stop offset="1" stop-color="#B14240" stop-opacity="0.53"/>
</linearGradient>
<linearGradient id="paint11_linear_603_46" x1="42.4525" y1="54.5114" x2="96.1536" y2="54.7383" gradientUnits="userSpaceOnUse">
<stop stop-color="#3F37C9" stop-opacity="0.74"/>
<stop offset="1" stop-color="#B14240" stop-opacity="0.53"/>
</linearGradient>
</defs>
</svg>
