<svg width="83" height="66" viewBox="0 0 83 66" fill="none" xmlns="http://www.w3.org/2000/svg">
<path d="M26.9626 9H23.029C22.1794 9 21.6971 8.05288 22.2116 7.39453L27.6815 0.394533C27.8757 0.145945 28.1781 0 28.4989 0H54.5011C54.8219 0 55.1243 0.145945 55.3185 0.394533L60.7884 7.39453C61.3029 8.05288 60.8206 9 59.971 9H56.0374C55.4701 9 55.0103 8.55229 55.0103 8V5C55.0103 4.44772 54.5504 4 53.9831 4H29.0169C28.4496 4 27.9897 4.44772 27.9897 5V8C27.9897 8.55229 27.5299 9 26.9626 9Z" fill="url(#paint0_linear_603_66)"/>
<path fill-rule="evenodd" clip-rule="evenodd" d="M83 16.7407V34.7817C70.6348 37.7123 57.9418 39.3286 45.1313 39.5701V38.5185C45.1313 36.8003 43.7377 35.4074 42.0187 35.4074H40.9813C39.2623 35.4074 37.8688 36.8003 37.8688 38.5185V39.5596C25.0534 39.2808 12.3605 37.6264 0 34.6579V16.7407C0 13.0179 3.01928 10 6.74375 10H76.2562C79.9807 10 83 13.0179 83 16.7407ZM37.8688 41.5878C25.0567 41.3122 12.3654 39.6771 0 36.7427V59.2593C0 62.9821 3.01928 66 6.74375 66H76.2562C79.9807 66 83 62.9821 83 59.2593V36.865C70.63 39.7621 57.9386 41.3595 45.1313 41.5982V44.7407C45.1313 46.459 43.7377 47.8519 42.0187 47.8519H40.9813C39.2623 47.8519 37.8688 46.459 37.8688 44.7407V41.5878ZM39.425 41.6296H43.575V45.7778H39.425V41.6296Z" fill="url(#paint1_linear_603_66)"/>
<defs>
<linearGradient id="paint0_linear_603_66" x1="17.4319" y1="3.53674" x2="88.1804" y2="4.79825" gradientUnits="userSpaceOnUse">
<stop stop-color="#3F37C9" stop-opacity="0.74"/>
<stop offset="1" stop-color="#B14240" stop-opacity="0.53"/>
</linearGradient>
<linearGradient id="paint1_linear_603_66" x1="-9.72182" y1="32.0064" x2="140.888" y2="32.9249" gradientUnits="userSpaceOnUse">
<stop stop-color="#3F37C9" stop-opacity="0.74"/>
<stop offset="1" stop-color="#B14240" stop-opacity="0.53"/>
</linearGradient>
</defs>
</svg>
