<svg width="473" height="377" viewBox="0 0 473 377" fill="none" xmlns="http://www.w3.org/2000/svg">
<ellipse cx="82.5" cy="103" rx="55.5" ry="56" fill="url(#paint0_radial_603_225)"/>
<ellipse cx="102" cy="275.5" rx="102" ry="101.5" fill="url(#paint1_radial_603_225)" fill-opacity="0.75"/>
<ellipse cx="371" cy="101.5" rx="102" ry="101.5" fill="url(#paint2_radial_603_225)"/>
<path d="M70.3231 92.3843C70.2461 89.5703 72.5063 87.2476 75.3212 87.2476H421.752C424.587 87.2476 426.855 89.6024 426.748 92.4355L419.082 296.272C418.981 298.959 416.774 301.084 414.086 301.084H80.8963C78.1881 301.084 75.9722 298.928 75.8981 296.221L70.3231 92.3843Z" fill="url(#paint3_linear_603_225)"/>
<g filter="url(#filter0_d_603_225)">
<rect x="81.8789" y="75.5503" width="333.366" height="220.051" rx="5" fill="white"/>
</g>
<defs>
<filter id="filter0_d_603_225" x="77.8789" y="71.5503" width="341.366" height="228.051" filterUnits="userSpaceOnUse" color-interpolation-filters="sRGB">
<feFlood flood-opacity="0" result="BackgroundImageFix"/>
<feColorMatrix in="SourceAlpha" type="matrix" values="0 0 0 0 0 0 0 0 0 0 0 0 0 0 0 0 0 0 127 0" result="hardAlpha"/>
<feOffset/>
<feGaussianBlur stdDeviation="2"/>
<feComposite in2="hardAlpha" operator="out"/>
<feColorMatrix type="matrix" values="0 0 0 0 0 0 0 0 0 0 0 0 0 0 0 0 0 0 0.15 0"/>
<feBlend mode="normal" in2="BackgroundImageFix" result="effect1_dropShadow_603_225"/>
<feBlend mode="normal" in="SourceGraphic" in2="effect1_dropShadow_603_225" result="shape"/>
</filter>
<radialGradient id="paint0_radial_603_225" cx="0" cy="0" r="1" gradientUnits="userSpaceOnUse" gradientTransform="translate(82.5 103) rotate(90) scale(48 47.5714)">
<stop stop-color="#FFECD1"/>
<stop offset="1" stop-color="#FFECD1" stop-opacity="0"/>
</radialGradient>
<radialGradient id="paint1_radial_603_225" cx="0" cy="0" r="1" gradientUnits="userSpaceOnUse" gradientTransform="translate(102 275.5) rotate(90) scale(87 87.4286)">
<stop stop-color="#FFEEAE"/>
<stop offset="1" stop-color="#FFE998" stop-opacity="0"/>
</radialGradient>
<radialGradient id="paint2_radial_603_225" cx="0" cy="0" r="1" gradientUnits="userSpaceOnUse" gradientTransform="translate(371 101.5) rotate(90) scale(87 87.4286)">
<stop stop-color="#FFE2D1"/>
<stop offset="1" stop-color="#FFE2D1" stop-opacity="0"/>
</radialGradient>
<linearGradient id="paint3_linear_603_225" x1="240.31" y1="301.085" x2="242.884" y2="47.2172" gradientUnits="userSpaceOnUse">
<stop stop-color="#F6D5F7"/>
<stop offset="1" stop-color="#FBE9D7" stop-opacity="0"/>
</linearGradient>
</defs>
</svg>
